<svg width="160" height="96" viewBox="0 0 160 96" fill="none" xmlns="http://www.w3.org/2000/svg">
<path d="M138.869 10.0444C120.485 11.3842 95.9996 18.9578 80 21.2063C64.0004 18.9578 39.515 11.3842 21.1313 10.0444C9.45038 9.1931 -0.258114 20.7096 5.9202 34.6929C15.2764 55.869 53.707 87 80 87C106.293 87 144.723 55.869 154.08 34.6929C160.258 20.7096 150.55 9.1931 138.869 10.0444Z" fill="white"/>
<g clip-path="url(#clip0_1_1224)">
<path d="M48.6367 50.0658H46.9656V42.8288H48.5589V43.792C49.2161 43.0349 50.0044 42.6747 50.9421 42.6838C51.8875 42.693 52.662 43.0578 53.1713 43.8562C53.4427 43.6318 53.6928 43.3875 53.9779 43.1983C55.0437 42.4869 56.5944 42.5068 57.6053 43.2425C58.2441 43.7081 58.5689 44.3629 58.6451 45.1368C58.6817 45.5124 58.6726 45.8924 58.6726 46.271C58.6756 47.4616 58.6726 48.6523 58.6726 49.8429C58.6726 49.9146 58.6726 49.9879 58.6726 50.0658H56.9755C56.9755 49.9818 56.9755 49.9101 56.9755 49.8383C56.9755 48.4676 56.9786 47.0968 56.971 45.7276C56.9679 45.3063 56.8368 44.9216 56.5395 44.6102C55.7832 43.8165 54.3758 44.0882 53.8864 45.1216C53.7156 45.4818 53.6592 45.865 53.6577 46.2588C53.6562 47.4555 53.6577 48.6523 53.6577 49.849C53.6577 49.9162 53.6577 49.9833 53.6577 50.0642H51.9545C51.9545 49.9849 51.9545 49.9131 51.9545 49.8414C51.9515 48.4645 51.9667 47.0877 51.9378 45.7123C51.9241 45.0804 51.674 44.5339 51.0382 44.2713C50.1935 43.9248 49.2298 44.337 48.8486 45.1826C48.6809 45.5536 48.6397 45.9443 48.6382 46.3427C48.6336 47.509 48.6382 48.6752 48.6382 49.8398V50.0673L48.6367 50.0658Z" fill="#192636"/>
<path d="M88.9915 49.101V50.0612H87.36V39.7134H89.0281V43.7737C89.3071 43.5585 89.5602 43.3158 89.8545 43.1433C91.4326 42.2167 93.3812 42.6991 94.4257 44.2576C95.4229 45.7444 95.1987 48.0066 93.9302 49.2674C92.6204 50.571 90.4537 50.5527 89.1638 49.2277C89.118 49.1804 89.0769 49.127 89.0327 49.0766C89.0189 49.0843 89.0037 49.0934 88.99 49.101H88.9915ZM91.3533 48.7087C92.6112 48.7164 93.5947 47.7181 93.6145 46.413C93.6344 45.1216 92.6478 44.079 91.3701 44.0851C90.042 44.0928 89.1059 45.0559 89.0891 46.3977C89.0723 47.6982 90.071 48.6996 91.3533 48.7072V48.7087Z" fill="#192636"/>
<path d="M111.55 43.8302V39.7103H113.197V50.0627H111.576V49.0949C111.297 49.3193 111.052 49.5605 110.768 49.736C109.057 50.7985 106.767 50.1161 105.921 48.2645C105.265 46.8282 105.331 45.3994 106.262 44.0912C107.007 43.0456 108.069 42.6075 109.349 42.7022C110.201 42.7647 110.899 43.1357 111.468 43.763C111.483 43.7798 111.503 43.792 111.552 43.8302H111.55ZM109.252 48.7927C110.51 48.8003 111.494 47.802 111.514 46.4969C111.533 45.2055 110.547 44.163 109.269 44.1691C107.941 44.1767 107.005 45.1399 106.988 46.4817C106.971 47.7822 107.97 48.7835 109.252 48.7912V48.7927Z" fill="#192636"/>
<path d="M76.9139 46.4526C76.9094 48.1669 75.9457 49.5208 74.3173 50.0368C72.8002 50.5176 71.0193 50.139 69.9901 48.8965C69.2384 47.9883 68.9868 46.9381 69.185 45.7841C69.4213 44.4011 70.202 43.4394 71.5072 42.9296C72.9801 42.3541 74.8067 42.6548 75.9076 43.8317C76.5968 44.569 76.9033 45.4559 76.9139 46.4542V46.4526ZM70.7738 46.4404C70.7662 47.7517 71.7481 48.7576 73.038 48.7606C74.299 48.7637 75.2855 47.7578 75.2931 46.4664C75.3008 45.1506 74.3127 44.1294 73.0365 44.134C71.7588 44.137 70.7814 45.1338 70.7723 46.442L70.7738 46.4404Z" fill="#192636"/>
<path d="M67.9532 46.5717C67.9532 48.0768 66.9896 49.4322 65.3612 49.9482C63.8013 50.4412 61.9854 50.023 60.9745 48.7377C60.2761 47.8508 60.0352 46.8342 60.2197 45.7321C60.4926 44.0958 61.5554 42.9921 63.2082 42.6517C64.8778 42.3068 66.6282 42.9372 67.476 44.4606C67.8053 45.0529 67.9593 45.6894 67.9532 46.5732V46.5717ZM64.0773 48.6721C65.3352 48.6797 66.3187 47.6814 66.3385 46.3763C66.3583 45.0849 65.3718 44.0423 64.0941 44.0485C62.766 44.0561 61.8298 45.0193 61.8131 46.361C61.7963 47.6616 62.795 48.6629 64.0773 48.6706V48.6721Z" fill="#192636"/>
<path d="M85.3193 50.0658H83.6314C83.6314 49.9849 83.6314 49.9131 83.6314 49.8414C83.6299 48.495 83.6391 47.1502 83.6223 45.8039C83.6116 44.9506 82.9453 44.224 82.1631 44.166C81.3001 44.1019 80.5652 44.5507 80.2755 45.3673C80.1642 45.6818 80.1001 46.0283 80.094 46.3611C80.0727 47.5135 80.0849 48.6675 80.0849 49.8215C80.0849 49.8948 80.0849 49.9696 80.0849 50.0597H78.4V42.8319H80.0041V43.8333C80.0574 43.7844 80.0833 43.7646 80.1047 43.7401C80.7954 42.9342 81.6782 42.6106 82.7227 42.7037C83.7244 42.7937 84.4929 43.2578 84.9808 44.1508C85.2202 44.5889 85.3239 45.0666 85.3269 45.5612C85.3346 47.0312 85.33 48.5011 85.33 49.9696C85.33 49.994 85.3254 50.0184 85.3193 50.0658Z" fill="#192636"/>
<path d="M100.501 50.0658V42.8304H102.099V43.7569C102.15 43.7157 102.17 43.705 102.182 43.6882C102.789 42.8548 103.633 42.5907 104.617 42.6945C105.163 42.7525 105.161 42.7724 105.16 43.3188C105.16 43.6837 105.16 44.047 105.16 44.3751C104.749 44.3385 104.356 44.2668 103.966 44.2759C102.969 44.3004 102.244 45.0086 102.18 46.01C102.145 46.5595 102.15 47.1121 102.147 47.6631C102.142 48.3943 102.147 49.127 102.147 49.8582C102.147 49.9238 102.147 49.991 102.147 50.0658H100.501Z" fill="#192636"/>
<path d="M96.653 42.8289C96.7018 42.8243 96.7384 42.8166 96.775 42.8166C97.2888 42.8166 97.8042 42.8166 98.3318 42.8166V50.0642H96.653V42.8289Z" fill="#192636"/>
<path d="M98.5712 40.7559C98.5712 41.3604 98.0848 41.8504 97.4901 41.8443C96.8909 41.8382 96.4075 41.3497 96.4091 40.7498C96.4091 40.1499 96.897 39.6737 97.5054 39.6783C98.1061 39.6828 98.5712 40.153 98.5712 40.7544V40.7559Z" fill="#192636"/>
</g>
<defs>
<clipPath id="clip0_1_1224">
<rect width="67.84" height="10.56" fill="white" transform="translate(46.08 39.6799)"/>
</clipPath>
</defs>
</svg>